<svg width="50" height="50" viewBox="0 0 50 50" fill="none" xmlns="http://www.w3.org/2000/svg">
<rect x="0.625" y="0.625" width="48.75" height="48.75" rx="5.625" stroke="#F4C22F" stroke-width="1.25"/>
<path d="M16.4849 36.2361C16.4849 37.7629 17.7274 39.0055 19.2543 39.0055C20.7812 39.0055 22.0238 37.7629 22.0238 36.2361C22.0238 34.7092 20.7812 33.4666 19.2543 33.4666C17.7274 33.4666 16.4849 34.7092 16.4849 36.2361ZM20.1775 36.2361C20.1775 36.7447 19.763 37.1592 19.2543 37.1592C18.7457 37.1592 18.3312 36.7447 18.3312 36.2361C18.3312 35.7274 18.7457 35.3129 19.2543 35.3129C19.763 35.3129 20.1775 35.7274 20.1775 36.2361Z" fill="#F4C22F"/>
<path d="M33.1014 36.2361C33.1014 34.7092 31.8588 33.4666 30.3319 33.4666C28.8051 33.4666 27.5625 34.7092 27.5625 36.2361C27.5625 37.7629 28.8051 39.0055 30.3319 39.0055C31.8588 39.0055 33.1014 37.7629 33.1014 36.2361ZM29.4088 36.2361C29.4088 35.7274 29.8233 35.3129 30.3319 35.3129C30.8406 35.3129 31.2551 35.7274 31.2551 36.2361C31.2551 36.7447 30.8406 37.1592 30.3319 37.1592C29.8233 37.1592 29.4088 36.7447 29.4088 36.2361Z" fill="#F4C22F"/>
<path d="M13.8076 14.0805C13.922 15.1708 15.196 27.2714 15.3926 29.1408C15.5412 30.5541 16.7256 31.6203 18.1473 31.6203H32.5327C33.8297 31.6203 34.9689 30.699 35.2412 29.4306L37.4586 19.0831C37.5758 18.5347 37.4411 17.9707 37.0884 17.5359C36.7358 17.1001 36.2124 16.85 35.652 16.85H15.9557L15.5569 13.0614C15.5071 12.5906 15.111 12.2342 14.6384 12.2342H11.8689C11.3594 12.2342 10.9458 12.6478 10.9458 13.1574C10.9458 13.6669 11.3594 14.0805 11.8689 14.0805H13.8076ZM35.652 18.6963L33.4355 29.0438C33.3441 29.4666 32.9647 29.774 32.5318 29.774H18.1473C17.6728 29.774 17.2786 29.4186 17.2287 28.9478L16.1496 18.6963H35.652Z" fill="#F4C22F"/>
</svg>
