<svg width="60" height="11" viewBox="0 0 60 11" fill="none" xmlns="http://www.w3.org/2000/svg">
<path fill-rule="evenodd" clip-rule="evenodd" d="M1.07656e-05 0.491543C-0.000579045 0.335479 0.0225415 0.27874 0.199485 0.281335C1.10708 0.294193 2.01563 0.26883 2.92264 0.297023C4.25702 0.338546 5.46956 0.727349 6.45855 1.66987C7.13931 2.31842 7.56716 3.11254 7.73561 4.03382C8.07109 5.86931 7.55359 7.42676 6.15539 8.67197C5.39205 9.35167 4.47738 9.69341 3.46691 9.77492C2.35324 9.8648 1.23637 9.79332 0.121276 9.81762C-0.0121393 9.82057 0.00272389 9.74849 0.00284185 9.66474C0.00378555 8.72517 0.0057909 2.01089 1.07656e-05 0.491543ZM1.85662 8.02542C1.85591 8.15447 1.88292 8.19576 2.01952 8.19399C2.39134 8.18915 2.76386 8.19293 3.13344 8.15152C3.8083 8.07591 4.44128 7.88234 4.93531 7.38796C5.76576 6.55715 6.07093 5.54669 5.84031 4.40352C5.60804 3.25209 4.94533 2.44075 3.79615 2.08462C3.23642 1.91122 2.65439 1.92207 2.07508 1.91475C1.91005 1.91263 1.85284 1.94531 1.85473 2.1265C1.86499 3.10322 1.86216 7.03596 1.85662 8.02542Z" fill="#8A8A8A"/>
<path fill-rule="evenodd" clip-rule="evenodd" d="M56.3301 5.82121C57.3283 7.15619 58.3107 8.47005 59.3169 9.81576C59.1603 9.81576 59.0378 9.81576 58.9154 9.81576C58.3541 9.81576 57.7926 9.80703 57.2316 9.82095C57.0616 9.8252 56.976 9.76185 56.8878 9.62985C56.1098 8.46356 55.325 7.30176 54.5422 6.13853C54.5317 6.12284 54.5188 6.10798 54.5117 6.09076C54.4644 5.97457 54.3627 5.98223 54.2726 6.00075C54.1732 6.02128 54.2207 6.11459 54.2205 6.17321C54.2174 7.31473 54.2132 8.45625 54.2232 9.59765C54.2248 9.78745 54.1686 9.82437 53.9921 9.82001C53.5006 9.80739 53.0083 9.81199 52.5165 9.81812C52.3925 9.81977 52.3422 9.79724 52.3423 9.65639C52.3464 6.58502 52.3458 3.51364 52.3438 0.442381C52.3438 0.338221 52.3549 0.281953 52.4836 0.284784C53.5424 0.306843 54.6026 0.242554 55.6602 0.323712C56.3946 0.380098 57.0854 0.578746 57.6501 1.07938C58.3274 1.68004 58.5182 2.46814 58.4721 3.33611C58.4044 4.61281 57.7086 5.45577 56.469 5.77002C56.4273 5.78052 56.3876 5.79975 56.3301 5.82121ZM54.2184 3.23879C54.2184 3.6605 54.2259 4.08245 54.2142 4.50381C54.2101 4.65162 54.257 4.68064 54.3927 4.6751C54.6691 4.66377 54.9455 4.66979 55.222 4.64065C56.0312 4.55525 56.4915 4.08753 56.5515 3.27689C56.5999 2.62421 56.2663 2.13054 55.6455 1.92693C55.2372 1.79305 54.816 1.80768 54.3952 1.79942C54.2578 1.7967 54.2109 1.82667 54.2147 1.97365C54.2254 2.39512 54.2184 2.81696 54.2184 3.23879Z" fill="#8A8A8A"/>
<path fill-rule="evenodd" clip-rule="evenodd" d="M45.8623 0.474256C45.8618 0.331286 45.8909 0.284572 46.045 0.285162C47.6845 0.291414 49.3239 0.29047 50.9633 0.286224C51.091 0.28587 51.1371 0.310877 51.1341 0.449129C51.1248 0.890307 51.1249 1.33196 51.1341 1.77314C51.137 1.9062 51.0876 1.92401 50.9727 1.92354C49.9575 1.91964 48.9422 1.92601 47.9271 1.9167C47.7545 1.91516 47.7201 1.96541 47.723 2.12738C47.7332 2.70102 47.732 3.27503 47.7234 3.84868C47.7213 3.992 47.7615 4.02668 47.9022 4.02586C48.8795 4.0196 49.857 4.02656 50.8343 4.01842C50.9887 4.01713 51.0183 4.06467 51.0152 4.20646C51.0062 4.62876 51.0063 5.05142 51.0154 5.47372C51.0182 5.60726 50.9801 5.63899 50.849 5.63828C49.878 5.6325 48.9069 5.6404 47.936 5.63038C47.7549 5.62849 47.7214 5.6857 47.7233 5.85167C47.732 6.57041 47.7308 7.28927 47.7238 8.00813C47.7223 8.1511 47.7521 8.19817 47.9064 8.19699C48.9214 8.18921 49.9367 8.19664 50.9519 8.18909C51.1035 8.18803 51.1375 8.2312 51.1343 8.37547C51.1247 8.81028 51.1278 9.24568 51.133 9.68072C51.1343 9.78488 51.1087 9.82027 50.9981 9.82003C49.3335 9.81661 47.6688 9.81531 46.0041 9.82157C45.8525 9.82216 45.8646 9.74808 45.8647 9.64911C45.8657 8.11029 45.8674 1.99384 45.8623 0.474256Z" fill="#8A8A8A"/>
<path fill-rule="evenodd" clip-rule="evenodd" d="M12.4374 7.06342C12.6882 7.53255 13.0191 7.91463 13.5061 8.12861C14.0297 8.35864 14.5686 8.43885 15.1121 8.19585C15.6059 7.97526 15.8726 7.58151 15.8938 7.04537C15.9149 6.5143 15.6308 6.15853 15.1707 5.92886C14.6419 5.66486 14.07 5.50809 13.5296 5.27334C13.0015 5.04391 12.4984 4.77849 12.1338 4.30865C11.9109 4.02165 11.7873 3.69348 11.7441 3.34207C11.5516 1.77719 12.4086 0.657961 13.7086 0.290156C15.0663 -0.0940468 16.2891 0.243562 17.3844 1.10433C17.4653 1.16791 17.493 1.21274 17.4155 1.30982C17.1367 1.6591 16.864 2.01358 16.6005 2.37443C16.5204 2.48425 16.4855 2.45311 16.4125 2.37525C16.1145 2.05723 15.7725 1.79972 15.3294 1.73637C14.77 1.65639 14.2408 1.728 13.8514 2.1917C13.5033 2.60622 13.5806 3.12832 14.0203 3.44069C14.414 3.72026 14.8727 3.8611 15.3166 4.03262C15.7328 4.19352 16.1393 4.37329 16.5283 4.59388C17.3221 5.04391 17.7583 5.70402 17.8152 6.62908C17.9111 8.1909 17.0899 9.51007 15.5606 9.903C13.9288 10.3222 12.3344 9.85782 11.2876 8.31264C11.2445 8.24882 11.2397 8.21154 11.2992 8.15515C11.6782 7.79561 12.0537 7.43228 12.4374 7.06342Z" fill="#8A8A8A"/>
<path fill-rule="evenodd" clip-rule="evenodd" d="M35.8799 0.288733C36.5267 0.288733 37.1444 0.292862 37.762 0.285195C37.8856 0.283661 37.9338 0.328015 37.9765 0.436186C38.545 1.87532 40.1831 5.99644 40.4348 6.63249C40.5496 6.50568 42.1864 2.35448 42.958 0.429699C42.9887 0.352906 43.0108 0.285194 43.123 0.286138C43.7531 0.291682 44.3833 0.288852 45.0402 0.288852C44.8903 0.648872 42.1912 7.05315 40.9899 9.9129C40.9423 10.0261 40.8896 10.0632 40.7715 10.0587C40.5323 10.0496 40.2924 10.0502 40.0531 10.0586C39.9466 10.0624 39.8985 10.0234 39.859 9.92764C39.1186 8.13191 36.5212 1.85692 35.9662 0.513687C35.9377 0.445033 35.9128 0.374964 35.8799 0.288733Z" fill="#8A8A8A"/>
<path fill-rule="evenodd" clip-rule="evenodd" d="M25.7449 2.86366C25.3935 2.52746 25.0566 2.24506 24.6542 2.05892C23.071 1.32685 21.1651 2.11318 20.5549 3.79225C20.0849 5.08559 20.2414 6.31534 21.1856 7.36556C21.8171 8.06779 22.6513 8.324 23.5817 8.31421C24.3198 8.30654 24.9305 8.00633 25.4703 7.52941C25.5498 7.45922 25.6266 7.38609 25.7038 7.31496C25.7709 7.35164 25.7432 7.4085 25.7433 7.45273C25.7455 8.07699 25.7436 8.70136 25.7461 9.32574C25.7464 9.42046 25.7324 9.47826 25.6295 9.52781C23.7177 10.4484 21.2992 10.084 19.8035 8.55285C18.8778 7.60538 18.422 6.4615 18.3932 5.13738C18.3445 2.89692 19.8373 0.943117 21.9141 0.315559C23.1883 -0.0694689 24.4324 0.00425857 25.6326 0.606573C25.6971 0.638894 25.7474 0.66685 25.7469 0.756147C25.7432 1.44328 25.7449 2.13017 25.7449 2.86366Z" fill="#8A8A8A"/>
<path fill-rule="evenodd" clip-rule="evenodd" d="M10.5477 9.61007C10.5483 9.76661 10.5251 9.8283 10.346 9.82311C9.84196 9.80825 9.33708 9.81414 8.83267 9.82063C8.71023 9.82228 8.6726 9.79079 8.67272 9.66433C8.67614 6.59319 8.67637 3.52193 8.67236 0.450794C8.67213 0.312424 8.7179 0.285175 8.84471 0.286827C9.34286 0.29355 9.84125 0.29697 10.3392 0.28541C10.5041 0.281517 10.5496 0.321153 10.5488 0.491136C10.5414 2.01721 10.5423 8.0965 10.5477 9.61007Z" fill="#8A8A8A"/>
<path fill-rule="evenodd" clip-rule="evenodd" d="M59.7315 1.03137C59.8216 1.15181 59.9103 1.27048 60.0011 1.39198C59.987 1.39198 59.9759 1.39198 59.9649 1.39198C59.9142 1.39198 59.8636 1.39116 59.8129 1.39245C59.7977 1.39293 59.7899 1.38714 59.7819 1.37523C59.7117 1.26989 59.6408 1.16502 59.5701 1.06004C59.5692 1.05862 59.568 1.05732 59.5674 1.05579C59.5632 1.04517 59.554 1.04588 59.5458 1.04753C59.5368 1.04942 59.5411 1.05779 59.5411 1.0631C59.5409 1.16608 59.5404 1.26918 59.5413 1.37228C59.5416 1.38939 59.5364 1.39281 59.5204 1.39234C59.4761 1.39127 59.4316 1.39163 59.3873 1.39222C59.3761 1.39234 59.3716 1.39033 59.3716 1.37759C59.3719 1.10038 59.3719 0.823051 59.3718 0.54584C59.3718 0.536404 59.3728 0.531449 59.3844 0.531567C59.48 0.533572 59.5757 0.527793 59.6712 0.534989C59.7375 0.540061 59.7998 0.557991 59.8509 0.603288C59.912 0.657432 59.9292 0.728682 59.9251 0.807009C59.9189 0.922258 59.8562 0.998342 59.7442 1.02677C59.7402 1.0276 59.7366 1.02937 59.7315 1.03137ZM59.5407 0.79816C59.5407 0.836262 59.5416 0.874364 59.5404 0.912348C59.54 0.925678 59.5443 0.928391 59.5565 0.927919C59.5816 0.926858 59.6064 0.927446 59.6313 0.924733C59.7045 0.917066 59.7459 0.874836 59.7513 0.801699C59.7557 0.742836 59.7256 0.69813 59.6696 0.679846C59.6328 0.667813 59.5946 0.66911 59.5567 0.668284C59.5443 0.668166 59.5399 0.670763 59.5404 0.683975C59.5414 0.721958 59.5407 0.760059 59.5407 0.79816Z" fill="#231F20"/>
<path d="M31.3728 10.1077C34.1541 10.1077 36.4087 7.84501 36.4087 5.05385C36.4087 2.26268 34.1541 0 31.3728 0C28.5916 0 26.3369 2.26268 26.3369 5.05385C26.3369 7.84501 28.5916 10.1077 31.3728 10.1077Z" fill="#8A8A8A"/>
<path d="M31.3728 10.1077C34.1541 10.1077 36.4087 7.84501 36.4087 5.05385C36.4087 2.26268 34.1541 0 31.3728 0C28.5916 0 26.3369 2.26268 26.3369 5.05385C26.3369 7.84501 28.5916 10.1077 31.3728 10.1077Z" fill="#717171"/>
</svg>
