<svg width="18" height="21" viewBox="0 0 18 21" fill="none" xmlns="http://www.w3.org/2000/svg">
<path d="M15.3305 10.6464C15.2546 10.5697 15.1639 10.5088 15.0639 10.4671C14.9639 10.4254 14.8564 10.4038 14.7479 10.4035C14.6393 10.4032 14.5317 10.4242 14.4315 10.4654C14.3312 10.5066 14.2403 10.567 14.1639 10.6432C14.0876 10.7194 14.0273 10.8099 13.9868 10.9093C13.9462 11.0087 13.926 11.1151 13.9275 11.2223C13.929 11.3295 13.9521 11.4353 13.9955 11.5336C14.0388 11.6318 14.1015 11.7206 14.18 11.7947C14.8741 12.469 15.4248 13.2734 15.7998 14.1607C16.1748 15.0479 16.3665 16.0002 16.3636 16.9615C16.3636 17.9494 13.4952 19.3846 9 19.3846C4.50485 19.3846 1.63639 17.9487 1.63639 16.9599C1.63364 16.0052 1.82275 15.0593 2.19279 14.1772C2.56282 13.2951 3.10642 12.4942 3.79213 11.8208C3.86969 11.7462 3.93146 11.6571 3.97386 11.5587C4.01626 11.4603 4.03844 11.3545 4.03913 11.2476C4.03982 11.1407 4.01899 11.0347 3.97786 10.9358C3.93672 10.8369 3.8761 10.747 3.79951 10.6714C3.72292 10.5958 3.63188 10.5359 3.53168 10.4953C3.43147 10.4547 3.3241 10.4341 3.21578 10.4348C3.10747 10.4355 3.00037 10.4574 2.9007 10.4993C2.80102 10.5411 2.71076 10.6021 2.63515 10.6787C1.79686 11.5019 1.13232 12.481 0.679996 13.5595C0.227676 14.638 -0.00343706 15.7943 3.86275e-05 16.9615C3.86275e-05 19.5846 4.63665 21 9 21C13.3633 21 18 19.5846 18 16.9615C18.0036 15.7864 17.7693 14.6224 17.3109 13.538C16.8525 12.4535 16.1792 11.4704 15.3305 10.6464Z" fill="#7E7E7E"/>
<path d="M9 11.3077C10.1327 11.3077 11.24 10.9761 12.1819 10.3548C13.1237 9.7336 13.8578 8.85059 14.2913 7.81748C14.7248 6.78438 14.8382 5.64758 14.6172 4.55084C14.3962 3.4541 13.8507 2.44668 13.0498 1.65598C12.2488 0.865271 11.2283 0.326794 10.1173 0.10864C9.00635 -0.109515 7.85479 0.00244972 6.80828 0.430376C5.76176 0.858302 4.86728 1.58297 4.23797 2.51274C3.60865 3.44251 3.27275 4.53562 3.27275 5.65385C3.27451 7.15281 3.87847 8.58988 4.95216 9.64981C6.02585 10.7097 7.48158 11.306 9 11.3077ZM9 1.61539C9.8091 1.61539 10.6 1.85224 11.2728 2.29599C11.9455 2.73974 12.4699 3.37046 12.7795 4.1084C13.0891 4.84633 13.1701 5.65833 13.0123 6.44171C12.8544 7.2251 12.4648 7.94468 11.8927 8.50947C11.3206 9.07426 10.5916 9.45889 9.79809 9.61471C9.00454 9.77054 8.182 9.69056 7.43448 9.3849C6.68697 9.07924 6.04806 8.56162 5.59855 7.8975C5.14903 7.23337 4.90911 6.45258 4.90911 5.65385C4.91038 4.58317 5.3418 3.5567 6.10871 2.79962C6.87563 2.04253 7.91542 1.61665 9 1.61539Z" fill="#7E7E7E"/>
</svg>
