<svg width="30" height="19" viewBox="0 0 30 19" fill="none" xmlns="http://www.w3.org/2000/svg">
<path d="M18.8303 1.96094H10.8042V16.3807H18.8303V1.96094Z" fill="#717171"/>
<path d="M11.3387 9.17187C11.3387 6.24222 12.716 3.64203 14.8293 1.96201C13.274 0.739093 11.312 0 9.17187 0C4.10211 0 0 4.10211 0 9.17187C0 14.2416 4.10211 18.3437 9.17187 18.3437C11.312 18.3437 13.274 17.6047 14.8293 16.3817C12.713 14.7255 11.3387 12.1015 11.3387 9.17187Z" fill="#8A8A8A"/>
<path d="M29.6584 9.17187C29.6584 14.2416 25.5563 18.3437 20.4866 18.3437C18.3465 18.3437 16.3845 17.6047 14.8291 16.3817C16.9692 14.6987 18.3198 12.1015 18.3198 9.17187C18.3198 6.24222 16.9425 3.64203 14.8291 1.96201C16.3815 0.739093 18.3435 0 20.4836 0C25.5563 0 29.6584 4.12883 29.6584 9.17187Z" fill="#C4C4C4"/>
</svg>
