<svg width="42" height="14" viewBox="0 0 42 14" fill="none" xmlns="http://www.w3.org/2000/svg">
<path d="M15.9471 0.246197L10.4493 13.7858H6.86093L4.15734 2.98153C3.9909 2.31516 3.84866 2.07277 3.34958 1.78983C2.53206 1.33368 1.18732 0.905711 0 0.63928L0.0830977 0.246281H5.85637C6.59269 0.246281 7.25468 0.75315 7.42112 1.62694L8.85068 9.4634L12.3816 0.246281L15.9471 0.246197ZM30.0028 9.36325C30.0188 5.79171 25.2144 5.59732 25.249 3.9995C25.2583 3.51177 25.7062 2.99567 26.6871 2.86538C27.1742 2.79849 28.5147 2.74947 30.034 3.46935L30.6295 0.599489C29.812 0.293268 28.7613 0 27.4554 0C24.1012 0 21.7399 1.84131 21.72 4.47589C21.698 6.42421 23.4047 7.51135 24.692 8.1602C26.0138 8.82412 26.4558 9.24802 26.4511 9.84345C26.4424 10.7522 25.3965 11.1494 24.4208 11.1672C22.7141 11.1946 21.7243 10.6912 20.9337 10.3113L20.3193 13.2798C21.1111 13.655 22.5772 13.9808 24.0945 14C27.6595 13.9998 29.9916 12.1782 30.0028 9.36325ZM38.8605 13.7859H42L39.2606 0.246281H36.3623C35.7111 0.246281 35.162 0.638265 34.9175 1.23877L29.8281 13.7859H33.3903L34.0974 11.7638H38.4518L38.8605 13.7859ZM35.0736 8.9887L36.8607 3.90485L37.8888 8.9887H35.0736ZM20.797 0.246197L17.989 13.7858H14.5947L17.4033 0.246197H20.797Z" fill="#8A8A8A"/>
</svg>
